<svg xmlns="http://www.w3.org/2000/svg" version="1.1" xmlns:xlink="http://www.w3.org/1999/xlink" xmlns:svgjs="http://svgjs.dev/svgjs" width="800" height="1200" preserveAspectRatio="none" viewBox="0 0 800 1200">
    <g mask="url(&quot;#SvgjsMask1010&quot;)" fill="none">
        <rect width="800" height="1200" x="0" y="0" fill="url(&quot;#SvgjsLinearGradient1011&quot;)"></rect>
        <path d="M20.11 402.39L85.06 439.89L85.06 514.89L20.11 552.39L-44.84 514.89L-44.84 439.89zM214.97 514.89L279.93 552.39L279.93 627.39L214.97 664.89L150.02 627.39L150.02 552.39zM214.97 739.89L279.93 777.39L279.93 852.39L214.97 889.89L150.02 852.39L150.02 777.39zM344.88 289.89L409.83 327.39L409.83 402.39L344.88 439.89L279.93 402.39L279.93 327.39zM344.88 964.89L409.83 1002.39L409.83 1077.39L344.88 1114.89L279.93 1077.39L279.93 1002.39zM539.74 177.39L604.69 214.89L604.69 289.89L539.74 327.39L474.79 289.89L474.79 214.89zM604.69 514.89L669.65 552.39L669.65 627.39L604.69 664.89L539.74 627.39L539.74 552.39zM669.65 1077.39L734.6 1114.89L734.6 1189.89L669.65 1227.39L604.69 1189.89L604.69 1114.89zM864.51 64.89L929.46 102.39L929.46 177.39L864.51 214.89L799.55 177.39L799.55 102.39zM864.51 514.89L929.46 552.39L929.46 627.39L864.51 664.89L799.55 627.39L799.55 552.39zM799.55 1077.39L864.51 1114.89L864.51 1189.89L799.55 1227.39L734.6 1189.89L734.6 1114.89z" stroke="#03305d" stroke-width="2"></path>
        <path d="M12.61 402.39 a7.5 7.5 0 1 0 15 0 a7.5 7.5 0 1 0 -15 0zM77.56 439.89 a7.5 7.5 0 1 0 15 0 a7.5 7.5 0 1 0 -15 0zM77.56 514.89 a7.5 7.5 0 1 0 15 0 a7.5 7.5 0 1 0 -15 0zM12.61 552.39 a7.5 7.5 0 1 0 15 0 a7.5 7.5 0 1 0 -15 0zM-52.34 514.89 a7.5 7.5 0 1 0 15 0 a7.5 7.5 0 1 0 -15 0zM-52.34 439.89 a7.5 7.5 0 1 0 15 0 a7.5 7.5 0 1 0 -15 0zM207.47 514.89 a7.5 7.5 0 1 0 15 0 a7.5 7.5 0 1 0 -15 0zM272.43 552.39 a7.5 7.5 0 1 0 15 0 a7.5 7.5 0 1 0 -15 0zM272.43 627.39 a7.5 7.5 0 1 0 15 0 a7.5 7.5 0 1 0 -15 0zM207.47 664.89 a7.5 7.5 0 1 0 15 0 a7.5 7.5 0 1 0 -15 0zM142.52 627.39 a7.5 7.5 0 1 0 15 0 a7.5 7.5 0 1 0 -15 0zM142.52 552.39 a7.5 7.5 0 1 0 15 0 a7.5 7.5 0 1 0 -15 0zM207.47 739.89 a7.5 7.5 0 1 0 15 0 a7.5 7.5 0 1 0 -15 0zM272.43 777.39 a7.5 7.5 0 1 0 15 0 a7.5 7.5 0 1 0 -15 0zM272.43 852.39 a7.5 7.5 0 1 0 15 0 a7.5 7.5 0 1 0 -15 0zM207.47 889.89 a7.5 7.5 0 1 0 15 0 a7.5 7.5 0 1 0 -15 0zM142.52 852.39 a7.5 7.5 0 1 0 15 0 a7.5 7.5 0 1 0 -15 0zM142.52 777.39 a7.5 7.5 0 1 0 15 0 a7.5 7.5 0 1 0 -15 0zM337.38 289.89 a7.5 7.5 0 1 0 15 0 a7.5 7.5 0 1 0 -15 0zM402.33 327.39 a7.5 7.5 0 1 0 15 0 a7.5 7.5 0 1 0 -15 0zM402.33 402.39 a7.5 7.5 0 1 0 15 0 a7.5 7.5 0 1 0 -15 0zM337.38 439.89 a7.5 7.5 0 1 0 15 0 a7.5 7.5 0 1 0 -15 0zM272.43 402.39 a7.5 7.5 0 1 0 15 0 a7.5 7.5 0 1 0 -15 0zM272.43 327.39 a7.5 7.5 0 1 0 15 0 a7.5 7.5 0 1 0 -15 0zM337.38 964.89 a7.5 7.5 0 1 0 15 0 a7.5 7.5 0 1 0 -15 0zM402.33 1002.39 a7.5 7.5 0 1 0 15 0 a7.5 7.5 0 1 0 -15 0zM402.33 1077.39 a7.5 7.5 0 1 0 15 0 a7.5 7.5 0 1 0 -15 0zM337.38 1114.89 a7.5 7.5 0 1 0 15 0 a7.5 7.5 0 1 0 -15 0zM272.43 1077.39 a7.5 7.5 0 1 0 15 0 a7.5 7.5 0 1 0 -15 0zM272.43 1002.39 a7.5 7.5 0 1 0 15 0 a7.5 7.5 0 1 0 -15 0zM532.24 177.39 a7.5 7.5 0 1 0 15 0 a7.5 7.5 0 1 0 -15 0zM597.19 214.89 a7.5 7.5 0 1 0 15 0 a7.5 7.5 0 1 0 -15 0zM597.19 289.89 a7.5 7.5 0 1 0 15 0 a7.5 7.5 0 1 0 -15 0zM532.24 327.39 a7.5 7.5 0 1 0 15 0 a7.5 7.5 0 1 0 -15 0zM467.29 289.89 a7.5 7.5 0 1 0 15 0 a7.5 7.5 0 1 0 -15 0zM467.29 214.89 a7.5 7.5 0 1 0 15 0 a7.5 7.5 0 1 0 -15 0zM597.19 514.89 a7.5 7.5 0 1 0 15 0 a7.5 7.5 0 1 0 -15 0zM662.15 552.39 a7.5 7.5 0 1 0 15 0 a7.5 7.5 0 1 0 -15 0zM662.15 627.39 a7.5 7.5 0 1 0 15 0 a7.5 7.5 0 1 0 -15 0zM597.19 664.89 a7.5 7.5 0 1 0 15 0 a7.5 7.5 0 1 0 -15 0zM532.24 627.39 a7.5 7.5 0 1 0 15 0 a7.5 7.5 0 1 0 -15 0zM532.24 552.39 a7.5 7.5 0 1 0 15 0 a7.5 7.5 0 1 0 -15 0zM662.15 1077.39 a7.5 7.5 0 1 0 15 0 a7.5 7.5 0 1 0 -15 0zM727.1 1114.89 a7.5 7.5 0 1 0 15 0 a7.5 7.5 0 1 0 -15 0zM727.1 1189.89 a7.5 7.5 0 1 0 15 0 a7.5 7.5 0 1 0 -15 0zM662.15 1227.39 a7.5 7.5 0 1 0 15 0 a7.5 7.5 0 1 0 -15 0zM597.19 1189.89 a7.5 7.5 0 1 0 15 0 a7.5 7.5 0 1 0 -15 0zM597.19 1114.89 a7.5 7.5 0 1 0 15 0 a7.5 7.5 0 1 0 -15 0zM857.01 64.89 a7.5 7.5 0 1 0 15 0 a7.5 7.5 0 1 0 -15 0zM921.96 102.39 a7.5 7.5 0 1 0 15 0 a7.5 7.5 0 1 0 -15 0zM921.96 177.39 a7.5 7.5 0 1 0 15 0 a7.5 7.5 0 1 0 -15 0zM857.01 214.89 a7.5 7.5 0 1 0 15 0 a7.5 7.5 0 1 0 -15 0zM792.05 177.39 a7.5 7.5 0 1 0 15 0 a7.5 7.5 0 1 0 -15 0zM792.05 102.39 a7.5 7.5 0 1 0 15 0 a7.5 7.5 0 1 0 -15 0zM857.01 514.89 a7.5 7.5 0 1 0 15 0 a7.5 7.5 0 1 0 -15 0zM921.96 552.39 a7.5 7.5 0 1 0 15 0 a7.5 7.5 0 1 0 -15 0zM921.96 627.39 a7.5 7.5 0 1 0 15 0 a7.5 7.5 0 1 0 -15 0zM857.01 664.89 a7.5 7.5 0 1 0 15 0 a7.5 7.5 0 1 0 -15 0zM792.05 627.39 a7.5 7.5 0 1 0 15 0 a7.5 7.5 0 1 0 -15 0zM792.05 552.39 a7.5 7.5 0 1 0 15 0 a7.5 7.5 0 1 0 -15 0zM792.05 1077.39 a7.5 7.5 0 1 0 15 0 a7.5 7.5 0 1 0 -15 0zM857.01 1114.89 a7.5 7.5 0 1 0 15 0 a7.5 7.5 0 1 0 -15 0zM857.01 1189.89 a7.5 7.5 0 1 0 15 0 a7.5 7.5 0 1 0 -15 0zM792.05 1227.39 a7.5 7.5 0 1 0 15 0 a7.5 7.5 0 1 0 -15 0z" fill="#03305d"></path>
        <path d="M43.69 68.67L87 93.67L87 143.67L43.69 168.67L0.39 143.67L0.39 93.67zM0.39 743.67L43.69 768.67L43.69 818.67L0.39 843.67L-42.91 818.67L-42.91 768.67zM87 743.67L130.3 768.67L130.3 818.67L87 843.67L43.69 818.67L43.69 768.67zM87 893.67L130.3 918.67L130.3 968.67L87 993.67L43.69 968.67L43.69 918.67zM87 1193.67L130.3 1218.67L130.3 1268.67L87 1293.67L43.69 1268.67L43.69 1218.67zM216.9 218.67L260.2 243.67L260.2 293.67L216.9 318.67L173.6 293.67L173.6 243.67zM260.2 143.67L303.51 168.67L303.51 218.67L260.2 243.67L216.9 218.67L216.9 168.67zM303.51 218.67L346.81 243.67L346.81 293.67L303.51 318.67L260.2 293.67L260.2 243.67zM260.2 443.67L303.51 468.67L303.51 518.67L260.2 543.67L216.9 518.67L216.9 468.67zM303.51 518.67L346.81 543.67L346.81 593.67L303.51 618.67L260.2 593.67L260.2 543.67zM303.51 818.67L346.81 843.67L346.81 893.67L303.51 918.67L260.2 893.67L260.2 843.67zM346.81 143.67L390.11 168.67L390.11 218.67L346.81 243.67L303.51 218.67L303.51 168.67zM390.11 518.67L433.42 543.67L433.42 593.67L390.11 618.67L346.81 593.67L346.81 543.67zM390.11 818.67L433.42 843.67L433.42 893.67L390.11 918.67L346.81 893.67L346.81 843.67zM390.11 968.67L433.42 993.67L433.42 1043.67L390.11 1068.67L346.81 1043.67L346.81 993.67zM346.81 1043.67L390.11 1068.67L390.11 1118.67L346.81 1143.67L303.51 1118.67L303.51 1068.67zM390.11 1118.67L433.42 1143.67L433.42 1193.67L390.11 1218.67L346.81 1193.67L346.81 1143.67zM476.72 368.67L520.02 393.67L520.02 443.67L476.72 468.67L433.42 443.67L433.42 393.67zM520.02 -6.33L563.32 18.67L563.32 68.67L520.02 93.67L476.72 68.67L476.72 18.67zM520.02 293.67L563.32 318.67L563.32 368.67L520.02 393.67L476.72 368.67L476.72 318.67zM649.93 668.67L693.23 693.67L693.23 743.67L649.93 768.67L606.63 743.67L606.63 693.67zM606.63 743.67L649.93 768.67L649.93 818.67L606.63 843.67L563.32 818.67L563.32 768.67zM606.63 893.67L649.93 918.67L649.93 968.67L606.63 993.67L563.32 968.67L563.32 918.67zM649.93 1118.67L693.23 1143.67L693.23 1193.67L649.93 1218.67L606.63 1193.67L606.63 1143.67zM606.63 1193.67L649.93 1218.67L649.93 1268.67L606.63 1293.67L563.32 1268.67L563.32 1218.67zM823.14 218.67L866.44 243.67L866.44 293.67L823.14 318.67L779.84 293.67L779.84 243.67zM779.84 743.67L823.14 768.67L823.14 818.67L779.84 843.67L736.53 818.67L736.53 768.67zM823.14 968.67L866.44 993.67L866.44 1043.67L823.14 1068.67L779.84 1043.67L779.84 993.67z" stroke="rgba(6, 80, 156, 0.93)" stroke-width="2"></path>
    </g>
    <defs>
        <mask id="SvgjsMask1010">
            <rect width="800" height="1200" fill="#ffffff"></rect>
        </mask>
        <linearGradient x1="-12.5%" y1="8.33%" x2="112.5%" y2="91.67%" gradientUnits="userSpaceOnUse" id="SvgjsLinearGradient1011">
            <stop stop-color="#0e2a47" offset="0"></stop>
            <stop stop-color="#00459e" offset="1"></stop>
        </linearGradient>
    </defs>
</svg>