<!--?xml version="1.0" standalone="no"?-->
              <svg id="sw-js-blob-svg" viewBox="0 0 100 100" xmlns="http://www.w3.org/2000/svg" version="1.1">
                    <defs> 
                        <linearGradient id="sw-gradient" x1="0" x2="1" y1="1" y2="0">
                            <stop id="stop1" stop-color="rgba(55, 162.997, 248, 1)" offset="0%"></stop>
                            <stop id="stop2" stop-color="rgba(31, 251, 161.559, 0.14)" offset="100%"></stop>
                        </linearGradient>
                    </defs>
                <path fill="url(#sw-gradient)" d="M15.1,-20.3C19.9,-13.8,24.7,-9.5,28.9,-2.6C33.2,4.4,36.9,14,34.1,20.5C31.3,27,21.8,30.5,12.8,32.5C3.9,34.6,-4.6,35.2,-12.9,33.2C-21.2,31.1,-29.4,26.4,-34.2,19.2C-38.9,12,-40.2,2.4,-36.9,-4.9C-33.7,-12.1,-25.9,-16.8,-19,-22.9C-12.1,-29,-6,-36.4,-0.5,-35.8C5.1,-35.3,10.2,-26.7,15.1,-20.3Z" width="100%" height="100%" transform="translate(50 50)" style="transition: all 0.3s ease 0s;" stroke-width="0" stroke="url(#sw-gradient)"></path>
              </svg>