<svg width="100%" height="100%" id="svg" viewBox="0 0 1440 690" xmlns="http://www.w3.org/2000/svg" class="transition duration-300 ease-in-out delay-150"><defs><linearGradient id="gradient" x1="0%" y1="50%" x2="100%" y2="50%"><stop offset="5%" stop-color="#F78DA7"></stop><stop offset="95%" stop-color="#8ED1FC"></stop></linearGradient></defs><path d="M 0,700 L 0,131 C 207.7333333333333,145.39999999999998 415.4666666666666,159.79999999999998 553,168 C 690.5333333333334,176.20000000000002 757.8666666666666,178.2 894,196 C 1030.1333333333334,213.8 1235.0666666666666,247.4 1440,281 L 1440,700 L 0,700 Z" stroke="none" stroke-width="0" fill="url(#gradient)" fill-opacity="0.4" class="transition-all duration-300 ease-in-out delay-150 path-0"></path><defs><linearGradient id="gradient" x1="0%" y1="50%" x2="100%" y2="50%"><stop offset="5%" stop-color="#F78DA7"></stop><stop offset="95%" stop-color="#8ED1FC"></stop></linearGradient></defs><path d="M 0,700 L 0,306 C 134.8,312.6666666666667 269.6,319.33333333333337 429,321 C 588.4,322.66666666666663 772.4000000000001,319.3333333333333 945,341 C 1117.6,362.6666666666667 1278.8,409.33333333333337 1440,456 L 1440,700 L 0,700 Z" stroke="none" stroke-width="0" fill="url(#gradient)" fill-opacity="0.53" class="transition-all duration-300 ease-in-out delay-150 path-1"></path><defs><linearGradient id="gradient" x1="0%" y1="50%" x2="100%" y2="50%"><stop offset="5%" stop-color="#F78DA7"></stop><stop offset="95%" stop-color="#8ED1FC"></stop></linearGradient></defs><path d="M 0,700 L 0,481 C 155.46666666666664,443.26666666666665 310.9333333333333,405.53333333333336 483,434 C 655.0666666666667,462.46666666666664 843.7333333333333,557.1333333333333 1006,601 C 1168.2666666666667,644.8666666666667 1304.1333333333332,637.9333333333334 1440,631 L 1440,700 L 0,700 Z" stroke="none" stroke-width="0" fill="url(#gradient)" fill-opacity="1" class="transition-all duration-300 ease-in-out delay-150 path-2"></path></svg>